<svg xmlns="http://www.w3.org/2000/svg" fill="#f0f8ff" viewBox="0 0 48 48" width="48px" height="48px"><path d="M 14 1 C 14 1 12.863576 6.2497825 12.304688 11.90625 C 12.256681 11.968502 12.196323 12.029434 12.150391 12.091797 C 10.239205 14.686617 10.001953 17.363281 10.001953 17.363281 L 9.9960938 17.429688 L 9.9960938 17.494141 C 9.9960938 24.327153 12.298925 34.39334 13.193359 38.369141 L 2.7636719 44.1875 A 1.5008483 1.5008483 0 1 0 4.2265625 46.808594 L 14.425781 41.117188 C 14.636162 41.352082 14.871329 41.574689 15.154297 41.767578 L 20.636719 45.75 L 20.654297 45.761719 C 21.082498 46.054323 21.789219 46.433594 22.699219 46.433594 L 25.400391 46.433594 C 26.055391 46.433594 26.859457 46.216187 27.515625 45.710938 L 32.945312 41.767578 C 33.274937 41.542335 33.536798 41.27675 33.769531 40.996094 L 43.742188 46.828125 A 1.50015 1.50015 0 1 0 45.255859 44.238281 L 34.929688 38.201172 C 35.744179 34.198997 37.998047 24.140251 37.998047 17.369141 L 37.998047 17.302734 L 37.992188 17.234375 C 37.992188 17.234375 37.749925 14.584421 35.833984 12.021484 C 35.791354 11.964458 35.735805 11.90849 35.691406 11.851562 C 35.130618 6.2158899 34 1 34 1 L 31.544922 8.5410156 C 29.601078 7.5941946 27.117206 6.96875 23.994141 6.96875 C 20.880387 6.96875 18.400421 7.5984401 16.458984 8.5527344 L 14 1 z M 23.994141 9.96875 C 29.463756 9.96875 32.020581 11.930796 33.431641 13.818359 C 34.80999 15.662165 34.984327 17.372515 34.992188 17.453125 C 34.982876 20.63941 34.379154 24.925204 33.685547 28.878906 L 23.972656 32.355469 C 23.375276 32.155366 17.451887 30.167393 14.328125 28.958984 C 13.619968 25.031138 13.010907 20.760704 13.001953 17.574219 C 13.009753 17.493359 13.1838 15.745609 14.564453 13.871094 C 15.977268 11.952913 18.529867 9.96875 23.994141 9.96875 z M 15.945312 23.966797 L 16.818359 26.734375 C 17.042359 27.444375 17.764141 27.871609 18.494141 27.724609 L 22.005859 27.015625 L 15.945312 23.966797 z M 31.949219 24.023438 L 25.986328 27.001953 L 29.494141 27.777344 C 30.166141 27.926344 30.841828 27.536859 31.048828 26.880859 L 31.949219 24.023438 z M 33.037109 32.298828 C 32.556493 34.777589 32.098753 37.015118 31.847656 38.294922 C 31.715195 38.755388 31.436446 39.16628 31.253906 39.291016 L 31.236328 39.302734 L 25.701172 43.322266 L 25.685547 43.333984 C 25.541715 43.444735 25.545391 43.433594 25.400391 43.433594 L 22.699219 43.433594 C 22.610669 43.433594 22.518097 43.399904 22.351562 43.287109 L 16.863281 39.302734 L 16.845703 39.289062 C 16.740326 39.217224 16.60145 39.041404 16.476562 38.820312 A 1.50015 1.50015 0 0 0 16.236328 38.226562 C 15.9584 36.981799 15.495879 34.829757 15.009766 32.423828 C 18.670063 33.760624 23.501953 35.371094 23.501953 35.371094 L 23.994141 35.535156 L 33.037109 32.298828 z M 24.072266 36.966797 C 22.675266 36.966797 21.538531 37.232516 20.769531 37.478516 C 20.174531 37.668516 19.893969 38.341344 20.167969 38.902344 L 20.169922 38.90625 C 20.392922 39.36225 20.912484 39.590594 21.396484 39.433594 C 22.006484 39.236594 22.911656 39.013672 23.972656 39.013672 C 25.175656 39.013672 26.139625 39.227875 26.765625 39.421875 C 27.247625 39.571875 27.761422 39.345578 27.982422 38.892578 C 28.257422 38.329578 27.972047 37.650844 27.373047 37.464844 C 26.593047 37.222844 25.444266 36.966797 24.072266 36.966797 z"/></svg>